G75*
%MOIN*%
%OFA0B0*%
%FSLAX25Y25*%
%IPPOS*%
%LPD*%
%AMOC8*
5,1,8,0,0,1.08239X$1,22.5*
%
%ADD10C,0.00800*%
%ADD11C,0.00600*%
D10*
X0009300Y0006800D02*
X0014300Y0006800D01*
X0016800Y0009300D01*
X0016800Y0014300D01*
X0014300Y0016800D01*
X0016800Y0019300D01*
X0016800Y0024300D01*
X0014300Y0026800D01*
X0016800Y0029300D01*
X0016800Y0034300D01*
X0014300Y0036800D01*
X0016800Y0039300D01*
X0016800Y0044300D01*
X0014300Y0046800D01*
X0009300Y0046800D01*
X0006800Y0044300D01*
X0006800Y0039300D01*
X0009300Y0036800D01*
X0006800Y0034300D01*
X0006800Y0029300D01*
X0009300Y0026800D01*
X0006800Y0024300D01*
X0006800Y0019300D01*
X0009300Y0016800D01*
X0006800Y0014300D01*
X0006800Y0009300D01*
X0009300Y0006800D01*
X0023800Y0016800D02*
X0023800Y0036800D01*
X0026800Y0036800D01*
X0026800Y0037800D01*
X0026800Y0036800D02*
X0029800Y0036800D01*
X0029800Y0016800D01*
X0026800Y0016800D01*
X0026800Y0015800D01*
X0026800Y0016800D02*
X0023800Y0016800D01*
X0033800Y0016800D02*
X0033800Y0036800D01*
X0036800Y0036800D01*
X0036800Y0037800D01*
X0036800Y0036800D02*
X0039800Y0036800D01*
X0039800Y0016800D01*
X0036800Y0016800D01*
X0036800Y0015800D01*
X0036800Y0016800D02*
X0033800Y0016800D01*
X0046800Y0014300D02*
X0046800Y0009300D01*
X0049300Y0006800D01*
X0054300Y0006800D01*
X0056800Y0009300D01*
X0056800Y0014300D01*
X0054300Y0016800D01*
X0056800Y0019300D01*
X0056800Y0024300D01*
X0054300Y0026800D01*
X0056800Y0029300D01*
X0056800Y0034300D01*
X0054300Y0036800D01*
X0056800Y0039300D01*
X0056800Y0044300D01*
X0054300Y0046800D01*
X0049300Y0046800D01*
X0046800Y0044300D01*
X0046800Y0039300D01*
X0049300Y0036800D01*
X0046800Y0034300D01*
X0046800Y0029300D01*
X0049300Y0026800D01*
X0046800Y0024300D01*
X0046800Y0019300D01*
X0049300Y0016800D01*
X0046800Y0014300D01*
D11*
X0039000Y0027734D02*
X0039000Y0030002D01*
X0039000Y0028868D02*
X0035597Y0028868D01*
X0036731Y0027734D01*
X0036164Y0031417D02*
X0038433Y0031417D01*
X0039000Y0031984D01*
X0039000Y0033118D01*
X0038433Y0033685D01*
X0037299Y0033685D01*
X0037299Y0032551D01*
X0036164Y0031417D02*
X0035597Y0031984D01*
X0035597Y0033118D01*
X0036164Y0033685D01*
X0029000Y0033118D02*
X0029000Y0031984D01*
X0028433Y0031417D01*
X0026164Y0031417D01*
X0025597Y0031984D01*
X0025597Y0033118D01*
X0026164Y0033685D01*
X0027299Y0033685D02*
X0027299Y0032551D01*
X0027299Y0033685D02*
X0028433Y0033685D01*
X0029000Y0033118D01*
X0029000Y0030002D02*
X0029000Y0027734D01*
X0029000Y0028868D02*
X0025597Y0028868D01*
X0026731Y0027734D01*
M02*
