G75*
%MOIN*%
%OFA0B0*%
%FSLAX25Y25*%
%IPPOS*%
%LPD*%
%AMOC8*
5,1,8,0,0,1.08239X$1,22.5*
%
%ADD10C,0.00800*%
%ADD11C,0.00600*%
%ADD12C,0.00500*%
D10*
X0009300Y0006800D02*
X0014300Y0006800D01*
X0016800Y0009300D01*
X0016800Y0014300D01*
X0014300Y0016800D01*
X0016800Y0019300D01*
X0016800Y0024300D01*
X0014300Y0026800D01*
X0016800Y0029300D01*
X0016800Y0034300D01*
X0014300Y0036800D01*
X0016800Y0039300D01*
X0016800Y0044300D01*
X0014300Y0046800D01*
X0009300Y0046800D01*
X0006800Y0044300D01*
X0006800Y0039300D01*
X0009300Y0036800D01*
X0006800Y0034300D01*
X0006800Y0029300D01*
X0009300Y0026800D01*
X0006800Y0024300D01*
X0006800Y0019300D01*
X0009300Y0016800D01*
X0006800Y0014300D01*
X0006800Y0009300D01*
X0009300Y0006800D01*
X0018800Y0016800D02*
X0018800Y0036800D01*
X0021800Y0036800D01*
X0021800Y0037800D01*
X0021800Y0036800D02*
X0024800Y0036800D01*
X0024800Y0016800D01*
X0021800Y0016800D01*
X0021800Y0015800D01*
X0021800Y0016800D02*
X0018800Y0016800D01*
X0029300Y0026800D02*
X0034300Y0026800D01*
X0038800Y0016800D02*
X0041800Y0016800D01*
X0041800Y0015800D01*
X0041800Y0016800D02*
X0044800Y0016800D01*
X0044800Y0036800D01*
X0041800Y0036800D01*
X0041800Y0037800D01*
X0041800Y0036800D02*
X0038800Y0036800D01*
X0038800Y0016800D01*
X0046800Y0014300D02*
X0046800Y0009300D01*
X0049300Y0006800D01*
X0054300Y0006800D01*
X0056800Y0009300D01*
X0056800Y0014300D01*
X0054300Y0016800D01*
X0056800Y0019300D01*
X0056800Y0024300D01*
X0054300Y0026800D01*
X0056800Y0029300D01*
X0056800Y0034300D01*
X0054300Y0036800D01*
X0056800Y0039300D01*
X0056800Y0044300D01*
X0054300Y0046800D01*
X0049300Y0046800D01*
X0046800Y0044300D01*
X0046800Y0039300D01*
X0049300Y0036800D01*
X0046800Y0034300D01*
X0046800Y0029300D01*
X0049300Y0026800D01*
X0046800Y0024300D01*
X0046800Y0019300D01*
X0049300Y0016800D01*
X0046800Y0014300D01*
D11*
X0043000Y0019100D02*
X0043000Y0021369D01*
X0043000Y0020234D02*
X0039597Y0020234D01*
X0040731Y0019100D01*
X0040164Y0022783D02*
X0042433Y0022783D01*
X0043000Y0023350D01*
X0043000Y0024485D01*
X0042433Y0025052D01*
X0041299Y0025052D01*
X0041299Y0023917D01*
X0040164Y0022783D02*
X0039597Y0023350D01*
X0039597Y0024485D01*
X0040164Y0025052D01*
X0024000Y0027734D02*
X0024000Y0030002D01*
X0024000Y0028868D02*
X0020597Y0028868D01*
X0021731Y0027734D01*
X0021164Y0031417D02*
X0023433Y0031417D01*
X0024000Y0031984D01*
X0024000Y0033118D01*
X0023433Y0033685D01*
X0022299Y0033685D01*
X0022299Y0032551D01*
X0021164Y0031417D02*
X0020597Y0031984D01*
X0020597Y0033118D01*
X0021164Y0033685D01*
D12*
X0018300Y0048800D02*
X0015300Y0048800D01*
X0015300Y0054800D01*
X0018300Y0051800D01*
X0018300Y0054800D01*
X0019800Y0054800D01*
X0025300Y0054800D01*
X0025300Y0048800D01*
X0018300Y0048800D01*
X0018300Y0051800D01*
X0015300Y0048800D01*
X0008300Y0048800D01*
X0008300Y0054800D01*
X0013800Y0054800D01*
X0015300Y0054800D01*
X0018300Y0054800D01*
X0019800Y0054800D02*
X0019798Y0054908D01*
X0019792Y0055016D01*
X0019782Y0055124D01*
X0019769Y0055232D01*
X0019751Y0055339D01*
X0019730Y0055445D01*
X0019705Y0055550D01*
X0019676Y0055655D01*
X0019643Y0055758D01*
X0019607Y0055860D01*
X0019566Y0055961D01*
X0019523Y0056060D01*
X0019475Y0056157D01*
X0019425Y0056253D01*
X0019371Y0056347D01*
X0019313Y0056438D01*
X0019252Y0056528D01*
X0019188Y0056616D01*
X0019121Y0056701D01*
X0019051Y0056783D01*
X0018978Y0056863D01*
X0018902Y0056940D01*
X0018823Y0057015D01*
X0018742Y0057086D01*
X0018658Y0057155D01*
X0018572Y0057221D01*
X0018484Y0057283D01*
X0018393Y0057342D01*
X0018300Y0057398D01*
X0018205Y0057451D01*
X0018109Y0057500D01*
X0018010Y0057545D01*
X0017910Y0057587D01*
X0017809Y0057625D01*
X0017706Y0057660D01*
X0017603Y0057691D01*
X0017498Y0057718D01*
X0017392Y0057741D01*
X0017285Y0057760D01*
X0017178Y0057776D01*
X0017070Y0057788D01*
X0016962Y0057796D01*
X0016854Y0057800D01*
X0016746Y0057800D01*
X0016638Y0057796D01*
X0016530Y0057788D01*
X0016422Y0057776D01*
X0016315Y0057760D01*
X0016208Y0057741D01*
X0016102Y0057718D01*
X0015997Y0057691D01*
X0015894Y0057660D01*
X0015791Y0057625D01*
X0015690Y0057587D01*
X0015590Y0057545D01*
X0015491Y0057500D01*
X0015395Y0057451D01*
X0015300Y0057398D01*
X0015207Y0057342D01*
X0015116Y0057283D01*
X0015028Y0057221D01*
X0014942Y0057155D01*
X0014858Y0057086D01*
X0014777Y0057015D01*
X0014698Y0056940D01*
X0014622Y0056863D01*
X0014549Y0056783D01*
X0014479Y0056701D01*
X0014412Y0056616D01*
X0014348Y0056528D01*
X0014287Y0056438D01*
X0014229Y0056347D01*
X0014175Y0056253D01*
X0014125Y0056157D01*
X0014077Y0056060D01*
X0014034Y0055961D01*
X0013993Y0055860D01*
X0013957Y0055758D01*
X0013924Y0055655D01*
X0013895Y0055550D01*
X0013870Y0055445D01*
X0013849Y0055339D01*
X0013831Y0055232D01*
X0013818Y0055124D01*
X0013808Y0055016D01*
X0013802Y0054908D01*
X0013800Y0054800D01*
X0038300Y0054800D02*
X0038300Y0048800D01*
X0043800Y0048800D01*
X0045300Y0048800D01*
X0045300Y0051800D01*
X0045300Y0054800D01*
X0048300Y0054800D01*
X0048300Y0048800D01*
X0045300Y0051800D01*
X0048300Y0054800D01*
X0055300Y0054800D01*
X0055300Y0048800D01*
X0049800Y0048800D01*
X0048300Y0048800D01*
X0045300Y0048800D01*
X0043800Y0048800D02*
X0043802Y0048692D01*
X0043808Y0048584D01*
X0043818Y0048476D01*
X0043831Y0048368D01*
X0043849Y0048261D01*
X0043870Y0048155D01*
X0043895Y0048050D01*
X0043924Y0047945D01*
X0043957Y0047842D01*
X0043993Y0047740D01*
X0044034Y0047639D01*
X0044077Y0047540D01*
X0044125Y0047443D01*
X0044175Y0047347D01*
X0044229Y0047253D01*
X0044287Y0047162D01*
X0044348Y0047072D01*
X0044412Y0046984D01*
X0044479Y0046899D01*
X0044549Y0046817D01*
X0044622Y0046737D01*
X0044698Y0046660D01*
X0044777Y0046585D01*
X0044858Y0046514D01*
X0044942Y0046445D01*
X0045028Y0046379D01*
X0045116Y0046317D01*
X0045207Y0046258D01*
X0045300Y0046202D01*
X0045395Y0046149D01*
X0045491Y0046100D01*
X0045590Y0046055D01*
X0045690Y0046013D01*
X0045791Y0045975D01*
X0045894Y0045940D01*
X0045997Y0045909D01*
X0046102Y0045882D01*
X0046208Y0045859D01*
X0046315Y0045840D01*
X0046422Y0045824D01*
X0046530Y0045812D01*
X0046638Y0045804D01*
X0046746Y0045800D01*
X0046854Y0045800D01*
X0046962Y0045804D01*
X0047070Y0045812D01*
X0047178Y0045824D01*
X0047285Y0045840D01*
X0047392Y0045859D01*
X0047498Y0045882D01*
X0047603Y0045909D01*
X0047706Y0045940D01*
X0047809Y0045975D01*
X0047910Y0046013D01*
X0048010Y0046055D01*
X0048109Y0046100D01*
X0048205Y0046149D01*
X0048300Y0046202D01*
X0048393Y0046258D01*
X0048484Y0046317D01*
X0048572Y0046379D01*
X0048658Y0046445D01*
X0048742Y0046514D01*
X0048823Y0046585D01*
X0048902Y0046660D01*
X0048978Y0046737D01*
X0049051Y0046817D01*
X0049121Y0046899D01*
X0049188Y0046984D01*
X0049252Y0047072D01*
X0049313Y0047162D01*
X0049371Y0047253D01*
X0049425Y0047347D01*
X0049475Y0047443D01*
X0049523Y0047540D01*
X0049566Y0047639D01*
X0049607Y0047740D01*
X0049643Y0047842D01*
X0049676Y0047945D01*
X0049705Y0048050D01*
X0049730Y0048155D01*
X0049751Y0048261D01*
X0049769Y0048368D01*
X0049782Y0048476D01*
X0049792Y0048584D01*
X0049798Y0048692D01*
X0049800Y0048800D01*
X0045300Y0054800D02*
X0038300Y0054800D01*
M02*
